<svg xmlns="http://www.w3.org/2000/svg" viewBox="0 0 70 80"><defs><style>.a{fill:#d6b36a;}.a,.b{fill-rule:evenodd;}.b{fill:#009de2;}</style></defs><title>logo</title><path class="a" d="M60.91,46.92l-.14-.27-.13-.23-.15-.21L60.36,46l-.29-.3-.29-.18-.42-.13-.38-.1-.36-.07-.34,0h-.62l-.28,0-.25.1-.24.1-.22.13-.2.15-.16.22-.16.21-.13.24-.12.27-.07.32-.08.43,0,.49v.56l0,.62.09,1.09-.15.25-.13.23-.15.18-.11.16-.15.1-.11.08-.15,0h-.11l-.92-.82-.19-.15-.16-.1-.16-.06h-.28l-.11.06-.12.1-.09.15V52l-1,1.71h1.63l.1.17.07.17,0,.17,0,.2,0,.17,0,.17-.07.17-.1.2h1.25l.26-.26.26-.25.23-.29.22-.28.19-.31.17-.31.08-.17.08-.16.15-.34.26-.09.26-.09.23-.1.24-.08.4-.2.18-.11L58,52l.15-.13.14-.11.12-.13.12-.11.17-.26.07-.14,0-.07.05-.06V49.73l0-.21,0-.18,0-.19L59,49l.09-.14.13-.11.13-.11.18-.09.17.06.19.05.16,0,.17,0,.15,0,.16,0,.29-.11.13-.17.12-.17,0-.1,0-.08V48h0l0-.09,0-.22,0-.23,0-.07,0-.06,0-.11,0-.07V47l-.05-.11ZM14.25,49.1V47.92l0-.27v-.22l0-.23,0-.2-.1-.32L14,46.41l-.15-.24L13.66,46l-.17-.22-.19-.15-.22-.13-.23-.1-.26-.1-.28,0H11.7l-.35,0-.35.07-.37.1-.4.13-.17.07-.15.13-.17.15-.15.2-.17.21-.15.26-.16.28L9,47.19l-.06.1v.14l0,.14,0,.17,0,.17.07.2.09.21.13.24.28.09.32,0,.33,0,.38-.09.19.07.17.11.13.12.11.14,0,.14,0,.18v.19l0,.22V51l.05.13.07.14.17.26.11.11.13.13.13.11L12,52l.16.1.19.11.4.2.22.08.25.1.26.09.29.09.12.34.16.33.16.31.2.31.2.28.24.29.24.25.29.26h1.27l-.1-.2-.07-.17,0-.17v-.37l0-.17.07-.17.1-.17h1.63L17.24,52V50.41l-.11-.15-.12-.1-.07,0-.06,0H16.6l-.14.06-.16.1-.16.15-.92.82h-.14l-.14,0-.14-.08-.12-.1-.14-.16-.12-.18-.13-.23-.12-.25.08-1.09Zm21,15.17.09.07.1,0,.1,0,.13,0,.09,0,.12,0,.08,0,0,0,0,0,0,0,0-.06,0,0h0l0-.09,0-.11,0-.09,0-.12,0-.1,0-.1-.08-.09-.1-.08-.08,0-.21,0h-.13l-.1,0-.19.12-.13.19,0,.1v.12l0,.2,0,.09.09.1ZM49.11,45.45l-.13.18,0,.23,0,.2,0,.08.09.1.09.07.1.06.1,0h.22l.11,0,.09-.06,0,0h0l.05,0,0-.06,0,0h0l0-.08,0-.12,0-.08,0-.12,0-.11,0-.1-.08-.08-.1-.09-.09,0-.2,0H49.4l-.1,0-.19.13Zm-29.24.11,0,.2,0,.08.09.1.09.07.1.06.11,0h.22l.1,0,.09-.06,0,0,0,0,.06,0,0,0,0,0,0,0,.05-.08.06-.2,0-.13,0-.1-.05-.09-.08-.09-.1-.08-.09,0-.1,0h-.1l-.23,0-.19.13-.13.18,0,.1v.13Zm15.28-17h.12l.12-.05.1-.05.11-.07,0-.06,0,0h0l0-.09.05-.11,0-.09,0-.11-.05-.1,0-.1-.08-.08-.11-.1-.1,0-.12-.05H35l-.12.05-.12,0-.1.1-.13.18,0,.21,0,.2.05.09.08.1.1.07.12.05.12.05Zm1.76-16.67-.16-.3-.17-.25-.19-.21L36.2,11,36,10.89l-.24-.07-.24,0-.26,0-.3,0-.26.09-.24.11-.21.16-.2.18-.18.24-.16.27-.13.31-1,1.86-.21,0-.19,0-.37.13-.17.09-.15.12-.14.13-.13.19-.06.11,0,.13v.45l.09.2,0,.07.07.08.18.14.22.13.27.1h1.57V21h0l0,.91H30l-.12.31-.07.33-.05.31v.59l.05.28.07.27.12.29h.36l.32,0,.26,0,.23.06.16.06.13.07.08.07,0,.1v1H24.8l-.13.45-.13.45-.16.47-.19.48-.42.84L22,30.94l0,0-.2.12-.18.1-.37.14-.21,0-.17,0h-.35l-.38-.09-.17-.07-.18-.08-.38-.23-.17-.14L19,30.63l-.3,2.44-.74,1,0,.11v.13l0,.24.08.21.05.08.09.1.07.07.11.09.1.06.13.07.27.09.34.1.17,0,.18,0,.07,0h.09l.16,0,.13-.06.13-.05v0h0l.06,0,.12-.06.08-.13.09-.11.06-.13.06-.13v0l0,.21.08.2.11.15.14.16.13.1.18.07.18,0,.24,0,.2,0,.09,0v0h.1l0,0h0l.09,0,.15-.08.05-.1.06-.1,0-.13v0l0,0,0-.06V32.47l1.88-2,.36-.65,0,0,2.46-.48h-.34l-.05,0-.08,0,0,0,0-.05v-.06l-1.63-.47h-.13l.61-1.94,18.62.06.6,1.91-2.79.65,3,.52.13.29.19.31.45.62.25.3.3.31.31.31.36.31.12.14,0,0v2.39l.07.26.13.2.1.08.15.07.46.06.21,0,.08,0h.11l0,0h0l.09,0,.07-.06.09,0,.11-.16.12-.15.09-.2,0-.11,0-.06,0,0v0l.06.16.09.17.13.17.32.18.16.06.2.06.22,0,.25,0,.16,0,.07,0,.09,0,.13-.05.14,0,0,0,0,0,.06,0,.11-.06.09-.09v0l0,0,.06,0,.06-.1.07-.08.05-.11v-.06l0,0v-.13l0-.11v-.26l-.74-1L51,30.63l-.29.23-.3.2-.29.14-.26.11-.29.06-.28,0-.29,0-.26-.05-.35-.16L48,31l0,0-.84-1.2-.37-.52-.32-.51-.27-.51-.25-.48-.22-.51-.19-.48-.16-.48-.1-.48-6.35.07V24.59l.32-.15.35-.12.35-.07.34,0,.11-.31.07-.28,0-.29,0-.28,0-.31,0-.29-.07-.28-.11-.28h-3.4V16.13h1.86L38.9,16l.16-.12.06-.07.06-.05.1-.15,0-.16,0-.17,0-.06v-.33l-.19-.24L39,14.49l-.11-.1-.08-.07-.18-.13-.2-.11L38.23,14l-.18,0-.18,0-1-2Zm-1,1.22-.12.08-.12.07-.14,0-.15,0-.16,0-.13,0-.13-.07-.1-.08-.1-.13-.08-.13,0-.14v-.31l0-.14.08-.14.1-.1.1-.1.13-.07.13,0h.31l.14,0,.12.07.12.1.07.1.07.14,0,.14,0,.17,0,.14,0,.14L36,13l0,.07,0,.06,0,.07ZM35.75,21l0,.77v.14H34.57l0-5.76.12-.23.14-.15.15-.09.14,0,.15,0,.14.09.15.15.14.23V21Zm3.43,1.79v.68l-4.58.14-3.37-.14v-.68l4.58-.23,3.37.23ZM52.8,32.68h.82l.19,0,.14.07.06,0,.06.07.06.13v.07l0,.1,0,.08v.12l0,.24-1,1.09L51.92,35l-.11.08-.1.09-.11.07-.12.08-.15.06-.14.07-.18,0-.17.06h-.07l.8,2.68-.15.11-.13.12-.09,0-.07,0-.16.12-.1,0-.09,0-.19.08-.22.06-.2.07-.25,0-.23,0-.26,0-.26,0h-.58l-.09,0H48l-.6-.62-.54-.6-.54-.62-.48-.59L45.34,36l-.42-.59-.42-.6-.36-.59L43.45,33l-.3-.62-.25-.59-.25-.63-.18-.59-.19-.59-.13-.6H27.61l-.09.5-.1.52-.16.54-.19.58-.25.56-.27.61-.34.62-.35.66-.42.63-.44.68-.49.7-.52.72-.58.72-.6.75-.65.76-.69.81L21,39.56l-.46-.14-.44-.17-.39-.17-.36-.2L19,38.67l-.3-.24-.25-.24.78-2.72-.19,0-.15-.05-.28-.1-.13-.08-.1-.07L18.24,35,18.17,35l-1.32-.22-1-1.09,0-.24,0-.2v-.1l0-.07.07-.13L16,32.8l.14-.07.19,0h.84l.18-.22.14-.2.09-.2,0-.2,0-.21-.09-.2-.14-.19-.18-.2H15.87l.16-.3.12-.27.07-.27,0-.25,0-.26-.07-.22L16,29.26l-.16-.2h-1l-.05-.14,0-.11-.08-.12-.08-.11-.13-.14-.15-.11-.16-.12L14,28.1h-.31l-.25.05-.24,0-.21.08-.19.08-.16.11-.13.11-.1.16-.35-.1-.35-.06-.36,0h-.79l-.42,0-.43.06-.44.1-.45.15-.38.22-.17.11-.15.14-.25.3-.2.32-.11.38-.06.41v.47l.21,1,.24.94.25.86.28.82.27.74.31.7.32.66.35.59L8,39l-.12.13-.08.14-.12.26-.06.11,0,.13v.45l.09.2,0,.08.08.1.08.09.12.1,0,0,.09.05.23,0,.13,0,.18,0h.9l.28,0,.3,0,.66,0,.36-.05.41,0,1.89-.56-.11.17-.11.17-.09.07-.09.09-.05,0h0l0,0-.09.08-.13.06-.07,0-.06,0-.27.14-.18.06-.09,0h0l0,0-.17.06-.18.07-.35,0-.32.06-.62.07-.6,0-.56,0-.54,0-.51,0-.48-.09-.42-.1-.45.17-.41.2L6,41.92l-.34.23-.32.23-.27.25-.25.27-.22.28-.54-.31-.23-.17-.2-.15-.37-.34L3,41.87l-.12-.2-.09-.18-.07-.2,0-.19,0-.39V40.5l.05-.2L3.1,40l.37-.31.35-.31.34-.27.3-.29.29-.25L5,38.29l.26-.21.22-.23.2-.2.19-.18.18-.16.14-.17L6.35,37l.1-.13.09-.1.15-.28.13-.25.23-.54.15-.54,0-.28,0-.26v-.53l0-.29,0-.25,0-.29L7.12,33,7,32.47l-.07-.27L6.82,32l-.08-.21,0-.18-.11-.19-.08-.12-.1-.13-.11-.07-.11-.17-.1-.14-.14-.13-.11-.09-.16-.08-.15-.06-.17,0H4.77l-.22,0-.22.07-.25.07-.24.1-.28.11-.26.16-.36.18-.3.24-.21.27-.09.16-.06.18-.13.35-.07.36L2,33v.31l0,.27,0,.27.05.24.1.23.1.18.13.17.16.16.22.13L3,35l.25.08.27.06.32,0-.3.07-.28.13L3,35.51l-.23.17-.24.17-.2.22-.2.22L2,36.56l-.09.16,0,.15,0,.13v.13l0,.1,0,.1,0,.08.07.09.06,0,.09,0h.1l.13,0,.13,0h.16l.16,0,.21,0,.4-.23.09-.07.1-.05L3.72,37l.33-.25.3-.26.23-.28.09-.16.1-.14.14-.31L5,35.33l-.34-.21-.3-.2-.28-.2-.24-.2-.22-.22-.19-.2-.16-.2-.13-.2L3,33.28l0-.21,0-.2v-.23l0-.21L3,32.2l.1-.19.2-.22.22-.15.2-.16.21-.1.38-.15.17,0h.19l.32,0,.14.07.16.1.14.11.14.16.13.17.15.21.2.4.15.42.08.43.06.42v.2h0v.2l-.09.43L6.12,35l-.18.43-.23.42-.29.44-.35.45-.38.47-.46.47-.49.48-.59.49-.61.51-.22.16-.16.19L2,39.7,2,39.93l-.08.23,0,.26v.27l0,.31.13.44.09.22.11.22.24.4.13.18.16.2.14.17.18.18.17.16.2.17.19.14.22.16.47.28-.13.35-.08.37,0,.37,0,.4,0,.38,0,.39.08.4.13.42.07.15.12.15.11.14.15.14.14.12.19.11.19.1.22.1.09.13,0,.17-.06.17-.12.19-.2.2L5,49.1l-.16.11-.18.11-.41.27L4.17,50l0,.35L4.05,51l0,.64v1.19l0,.55.08.5,0,.24.07.25-.58,1-.14.13-.1.14-.06.16,0,.17,0,.17.06.18.1.2.14.21.18.09.17.07.18,0h.36l.17,0,.18-.07.2-.09.54-.82h.7v1l.13.07.16.07.16,0h.38l.21,0,.22-.07.26-.07v-1.5L8.45,54,8,53.87l-.38-.15-.33-.17L7,53.39l-.24-.2-.1-.12L6.63,53l-.13-.22-.08-.24.14-.41.18-.37L7,51.4l.25-.29.28-.27.3-.23.34-.18.39-.16.07-.22.06-.23,0-.23v-.44l0-.22-.06-.23-.07-.2-.6-1,0-.14,0-.13v-.14l0-.13L8,46.72l0-.15.11-.15.08-.17.12-.15.13-.17.16-.16.16-.18L9,45.42l.19-.18.23-.17.22,0,.25,0,.5-.11.27-.09.29-.07.59-.18.63-.24.68-.29.71-.32.37-.19.39-.16,1.38-1.65,0-.1.06-.07.17-.1.25-.07h.7l.46.07.54.1.29.07.32.1-.1.91,0,.9v.91l.06.92.09.91.14.9.18.91.24.93.19.76.22.8.25.79.29.79.3.78.35.79.38.79.42.8.54.62.57.64.58.62.61.64.61.6L25,59l.64.6.67.61.67.56.69.58.7.57.73.58.73.55.75.55.76.54.8.55.23,2,.31,2,.16,1,.2,1,.44,1.93L34,74.35l.55,1.9.29.93.32.95L35.81,80l.3-1,.29-1L37,76.17l.24-1,.24-1,.43-1.89.35-1.93.16-1,.15-.94.23-1.92.17-1.9.69-.56.66-.54,1.31-1.1.63-.57.61-.56.29-.3.31-.28.59-.57.55-.59.56-.59,1.07-1.18,1-1.22.48-.62.23-.31.12-.16.13-.14.48-.86.45-.84.39-.83.38-.81.32-.81.29-.78.23-.76L50.9,49l.23-.93.19-.91.14-.9.11-.91,0-.92v-.91l0-.9-.09-.91.3-.1.3-.07.27,0,.26-.05.24,0,.21,0h.7l.26.07.18.1.06.07.05.1,1.39,1.65.17.16.2.19.45.32.24.13.26.14.26.12.29.12.28.09.3.1.32.07.35.07.34,0,.36.06.38,0,.4,0,.34.18.16.1.16.13.27.27.14.14.13.17.19.32.08.17.09.2.13.41.12.44-.63,1-.13.43,0,.45,0,.44.13.45.37.16.34.18.15.1.16.13.29.27.25.29.22.33.08.17.1.2.16.41-.05.11,0,.06,0,0v0l-.13.22-.06.05,0,0-.09.12-.23.2-.29.16-.32.17-.38.15-.41.14.62,1.31v1.5l.23.07.23.07.2,0h.38l.18,0,.14-.07.15-.07v-1h.71l.52.82.18.09.17.07.18,0h.37l.18,0,.17-.07.21-.09.11-.21.1-.2.06-.18,0-.17,0-.17-.06-.16-.1-.14-.11-.13-.58-1v-.18l0-.19v-.21l0-.21v-.24l0-.26V51.89l0-.34v-.36l0-.38v-.4l0-.41v-.41L64.52,48l.19-.06.09,0,.1,0,.17-.1.16-.11.13-.14.06-.09,0,0,0,0,0,0,0,0,.06-.08v-.06l0,0L65.7,47l.1-.45.07-.42,0-.41V45l0-.35-.07-.36-.1-.32.45-.28.2-.16.22-.14.17-.17.09-.09,0,0,0,0,.05,0,0,0,0,0,0,0,.08-.08.18-.17.13-.2.14-.18.25-.4.1-.22,0-.12,0-.1.08-.22.08-.22,0-.31v-.27l0-.26,0-.23L68,39.7l-.13-.2-.16-.19-.19-.16-.64-.51-.58-.49-.52-.48-.44-.47-.41-.47-.35-.45-.29-.44-.2-.42-.2-.43-.15-.42-.09-.43,0-.21,0-.2,0-.42.11-.43.15-.42.23-.4.25-.38.28-.27.14-.1.16-.07.34,0h.17l.17,0,.4.15.19.1.2.16.22.15.23.22.07.19.08.23,0,.21,0,.23,0,.2,0,.1v.11l-.08.2-.1.22-.13.2-.16.2-.19.2-.22.22-.24.2-.28.2-.3.2-.32.21.08.31.16.31.19.3.25.28.28.26.34.25.18.12.2.12.44.23.17,0,.18,0h.14l.15,0,.11,0H68l.08,0,0,0h0l0-.09,0-.08v-.09h0v-.09h0l0-.13,0-.13,0-.08v0h0v0l-.06-.16-.21-.27-.2-.22-.22-.22-.22-.17L67,35.51l-.25-.12-.28-.13-.27-.07.14,0h.16l.28-.06L67,35l.1-.06.11,0,.09-.07.1-.06.18-.16.13-.17.06-.1.07-.08.07-.23L68,33.8v-.48l0-.06L68,33l0-.17v-.15l0-.1,0-.09,0-.17,0-.18,0-.17-.08-.18-.09-.16-.1-.14-.12-.13-.29-.24-.16-.1-.18-.08-.56-.27-.26-.1-.24-.07-.45-.1h-.39l-.36,0-.16.06-.13.08-.15.09-.12.13-.18.31-.25.17-.19.24-.16.28-.13.37-.12.3-.07.31-.07.29,0,.32,0,.59,0,.59.09.57,0,.28.11.3.08.27.13.28.13.27.18.28.07.1.1.13.12.14.16.17.16.16.19.18.2.2.25.23.23.21.28.24.29.25.32.29.32.27.36.31.38.31.42.34,0,.2v.21l0,.39,0,.17-.06.2-.17.37-.27.34-.08.07-.08.08-.16.17-.19.15-.2.15-.23.14-.23.16-.21-.3-.17-.27L65,42.29l-.17-.21-.19-.21-.17-.16-.18-.15-.17-.1-.35-.19-.35-.07-.35,0-.32.12-.23,0-.22,0h-.07l-.06,0-.12,0-.23,0h-.26l-.25,0h-.27l-.27,0-.29,0H60.2l-.3,0h-.29l-.32,0-.31,0-.33-.06-.32,0-.21-.07L58,41.23l-.34-.13L57.32,41l-.13-.07-.1-.06-.22-.15-.16-.16-.13-.17-.07-.17,1.89.56.38,0,.17,0,.19,0,.67,0,.29,0,.28,0h.9l.17,0,0,0h.13l.24,0,.08-.05.08,0,.08-.1.09-.09.06-.1.07-.08.07-.2,0-.11V40h0v0h0v-.09l0-.11,0-.07v-.06l0-.11-.13-.26-.09-.14L62,39,60.3,37.51l.32-.59.32-.66.15-.35,0-.1,0-.08.09-.17.14-.37.16-.37.27-.82.26-.86.11-.47.06-.24.07-.23.24-1V31l0-.23-.06-.41L62.34,30l-.17-.32-.27-.3-.14-.14-.16-.11L61.41,29l-.2-.1-.44-.15-.47-.1-.43-.06-.42,0h-.79l-.36,0-.37.06-.32.1-.13-.16-.13-.11-.16-.11L57,28.28l-.22-.08-.23,0-.25-.05H56l-.36.23-.25.25-.19.23-.07.25H54.11l-.19.2-.11.23-.08.22v.51l.08.27.11.27.19.3H52.8l-.2.2-.15.19-.08.2,0,.21,0,.2.08.2.15.2.2.22Zm-16.57.88v5.78l6,0,.12-.14.13-.1.26-.16.23-.1.12,0h.13l.21,0,.1,0,.11.07.09.06.1.1.21.24.16.11.14.11.12.12.1.14.07.11.06.11,0,.12v.25l0,.12-.06.11-.07.14-.1.11-.12.12-.14.11-.16.14-.21.2-.2.17-.12,0-.06,0,0,0-.2.06h-.13l-.12,0-.12,0-.11,0,0,0h0l0,0-.12-.07-.13-.09-.12-.08-.1-.1-.3,0h-5.6V54.81H34V41.26h-5.7l-.09.1-.28.17-.24.14-.14,0-.11,0-.22,0L27,41.71l-.21-.08-.2-.17-.17-.2-.19-.14L26.07,41l-.22-.22-.13-.26,0-.22,0-.26.13-.22.22-.26.13-.11.19-.11.17-.25.2-.15.21-.1.23,0,.22,0,.25.1.24.15.28.25H34V33.48l-.28-.26L33.54,33l-.12-.23v-.2l0-.2.13-.17.21-.17.29-.14.23-.32.26-.22.26-.12.26,0,.24,0,.26.12.12.09.13.13.26.32.14.06.13.08.12.09.1.08.07.09.06.1.05.08,0,.12v.08l0,.11,0,.1,0,.12-.07.11-.09.11-.1.12-.12.14-.1.08Zm19.33,1.3.21-.14.2-.07.09,0h.1l.18.05.14.07.15.12,0,.07.08.1.11.24-.43.27-.38.29-.35.28-.29.3-.26.29-.22.31-.17.32-.14.32-.52,1-.23-.17-.18-.17-.14-.19-.1-.2-.08-.23v-.49l.08-.26.36-.25,0,0,0,0,.09-.06.17-.11.31-.26.29-.25.25-.29.1-.14.12-.12.18-.29.08-.14.08-.13Zm-41.12,0,.13.27.19.29.21.26.25.29.28.25.3.26.34.24.37.25,0,.26,0,.25,0,.11v.13l0,.23-.11.2-.13.19-.19.17-.21.17-.52-1-.16-.32L15,37l-.24-.31-.24-.29-.31-.3-.33-.28-.38-.29-.41-.27.1-.24.14-.17.13-.12.16-.07.16-.05.2,0,.2.07.24.14Zm5,7.12h0l2.08.79-.07.74,0,.73V45l0,.75.07.74.12.73.14.74.19.76.27,1.09.36,1.1L23.1,52l.51,1.1-1.69,1-.62-1.33-.51-1.3-.42-1.3L20,48.83,19.8,48l-.17-.85-.14-.85-.07-.84-.06-.88v-.85l.05-.85.08-.85Zm9,16.47-1.25,1.26-.63-.55-.6-.54-1.13-1.1-1.1-1.14-1-1.14,1.6-1,.55.63.56.61.52.58.26.27.28.28.11.12.06,0,0,0,.05,0,.26.26.11.11.06.06,0,0,0,0,.27.25.23.22L28,58l.23.21.25.23Zm3.69,5-1-.7-.94-.67-.94-.71-.88-.71,1.32-1.23,4.45,2.9.32.17.35.14h0l0,0,.09,0,.17.05.35,0,.32,0,.35-.09.35-.13.35-.17,1.36-.84,2.62-2.18,1.41,1.35-.77.68-.77.68-.41.33-.39.34-.81.68-.21.17-.19.17-.37.29-.21.13-.1.06-.09.07-.2.1-.19.11-.11,0h-.06l-.05,0-.2.09-.41.11-.22,0-.2,0h-.22l-.2,0h-.23l-.12,0h-.1l-.23,0-.22,0-.47-.12-.23-.07-.12,0-.1,0-.24-.11-.24-.1-.07,0-.06,0-.11-.06-.24-.11-.49-.3-.25-.17-.23-.15ZM48.44,42.77,50.58,42l.07.85,0,.85v.85l0,.88-.11.84-.13.85-.17.85-.22.88-.16.58-.17.61-.22.61-.22.62-.28.62-.27.65-.32.65-.34.67-1.68-1,.52-1.09.23-.54.22-.52.19-.52.17-.51.15-.5L48,48.7l.17-.76.16-.74.11-.73.08-.74v-.3l0-.08V44.24l0-.73-.06-.74Zm-6.67,5.58,0,.15v0l0-.15Zm1.52,11.39-1.45-1.32.26-.28.13-.14.15-.13.52-.54,1-1.1.46-.57.47-.55,0-.08L45,55l.12-.15.23-.28.44-.56,1.64,1-.47.6-.13.14-.11.15-.24.32-1,1.18-.53.58-.52.6-1.11,1.16ZM36.43,75l-.06.25,0,.24-.05.23,0,.21-.09.37-.09.31-.08.23-.06.1,0,.08-.06.06,0,0-.06,0h-.08l0,0-.06,0,0-.06-.06-.08,0-.1-.08-.23-.09-.31-.09-.37-.06-.21,0-.23,0-.24L35,75l-.37-1.15-.3-1.15-.26-1.16-.19-1.16-.16-1.18L33.66,68l-.06-1.19V65.62l.11.1.15.14L34,66l.14.23.12.26.14.29.12.33.14.38.12.4.06.21.07.24.12.48.14.52.12.56.14.6.12.64.15.69.11-.67.12-.64L36,70l.15-.55.12-.52.11-.48.12-.44.14-.4.12-.37.12-.32.11-.3.12-.24.1-.21.12-.17.11-.13.12-.08,0,1,0,.52v.56l0,.53,0,.57-.11,1.15-.18,1.17-.2,1.2-.26,1.23-.16.63-.15.65Z"/><path class="b" d="M35.23,10.8l.26,0,.24,0,.24.07.23.13.19.16.19.21.17.25.16.3,1,2,.18,0,.18,0,.18.07.2.11.18.13.08.07.11.1.17.18.19.24v.33l0,.06,0,.17,0,.16-.1.15-.06.05-.06.07L38.9,16l-.16.11H36.88v3.74H55.1l6.38,5.2L39.69,0,31,10,26.5,4.22,26.28,4,26,4.33,8.14,25.48l6.8-5.61H33.55V16.13H32l-.27-.1-.22-.13-.18-.14-.07-.08,0-.07-.09-.2V15l0-.13.06-.11.13-.19.14-.13.15-.12.17-.09.37-.13.19,0,.21,0,1-1.86.13-.31.16-.27.18-.24.2-.18.21-.16.24-.11.26-.09.3,0Zm3.09-2.62-.13-.4-.14-.38L37.86,7l-.21-.35-.24-.37L37.13,6l-.31-.34-.33-.34,3.24-3.51,4,4.3h-.55l-.21,0-.16.09-.13.1-.07.12,0,.16,0,.2V8.63L40.28,7.54l-.2,0h-.2l-.21,0-.2.07-.2.08-.21.13-.2.16-.17.21-.3.32-.07-.32Zm-15.1,3.73-.24,0-.19,0h-.18l-.15,0-.14,0-.12,0-.1-.07L22,11.72,22,11.6l0-.11,0-.13v-.14l0-.17,0-.18.06-.2.09-.2,4.05-5,3.19,4.28-.43,0h-.36l-.36.06-.32.1-.32.13-.28.17-.27.21-.22.25-.35.65L26.2,12l-.21.65-.14.68-1.09-1.42-.23-.19-.21-.12-.2-.08-.19,0-.2,0-.18.08-.17.12-.16.19Z"/></svg>